<?xml version="1.0" standalone="no"?>
<!DOCTYPE svg PUBLIC "-//W3C//DTD SVG 20010904//EN"
 "http://www.w3.org/TR/2001/REC-SVG-20010904/DTD/svg10.dtd">
<svg version="1.0" xmlns="http://www.w3.org/2000/svg"
 width="700.000000pt" height="700.000000pt" viewBox="0 0 700.000000 700.000000"
 preserveAspectRatio="xMidYMid meet">
<metadata>
Created by potrace 1.11, written by Peter Selinger 2001-2013
</metadata>
<g transform="translate(0.000000,700.000000) scale(0.100000,-0.100000)"
fill="#000000" stroke="none">
<path d="M470 6984 c-220 -47 -408 -237 -455 -459 -22 -105 -22 -5944 0 -6050
46 -221 239 -414 460 -460 106 -22 5944 -22 6050 0 221 46 414 239 460 460 22
106 22 5945 0 6050 -47 224 -236 413 -460 460 -103 22 -5955 21 -6055 -1z
m1220 -2424 c5 -459 6 -477 26 -521 30 -64 88 -125 148 -157 45 -24 62 -27
146 -27 89 0 99 2 159 35 80 43 133 108 161 197 19 61 20 92 20 509 l0 445
103 -3 102 -3 3 -677 2 -678 -105 0 -105 0 0 60 0 60 -46 -35 c-213 -163 -485
-146 -671 42 -41 41 -73 86 -97 135 -62 130 -66 167 -66 659 l0 440 108 -3
107 -3 5 -475z m1238 232 l2 -243 32 26 c141 119 389 139 577 48 71 -34 169
-133 204 -206 31 -64 57 -169 57 -232 0 -135 -63 -279 -164 -381 -112 -111
-239 -161 -391 -152 -98 6 -174 34 -255 94 l-60 44 0 -55 0 -55 -100 0 -100 0
0 680 0 681 98 -3 97 -3 3 -243z m1617 -117 c171 -45 290 -179 331 -375 8 -40
14 -100 12 -134 l-3 -61 -394 -3 -393 -2 7 -28 c11 -45 54 -112 103 -158 123
-118 322 -110 456 18 l46 45 65 -50 c36 -27 65 -54 65 -59 0 -26 -109 -122
-175 -153 -287 -137 -652 -3 -750 275 -122 346 124 696 490 699 45 1 107 -6
140 -14z m985 -95 l0 -100 -56 0 c-86 0 -142 -18 -183 -59 -57 -57 -61 -82
-61 -430 l0 -311 -105 0 -105 0 0 495 0 495 105 0 105 0 0 -52 c1 -38 3 -48
10 -37 30 51 142 97 238 98 l52 1 0 -100z m-3100 -1355 l0 -115 -345 0 -345 0
0 -165 0 -165 335 0 335 0 0 -115 0 -115 -335 0 -335 0 0 -170 0 -170 345 0
345 0 0 -110 0 -110 -475 0 -475 0 0 675 0 675 475 0 475 0 0 -115z m1762 -97
l3 -143 143 -3 142 -3 0 -109 0 -110 -146 0 -146 0 4 -246 3 -246 28 -24 c26
-22 36 -24 143 -24 l114 0 0 -116 0 -116 -172 4 c-191 4 -225 13 -287 71 -18
18 -43 52 -55 77 -20 42 -21 64 -24 333 l-4 287 -94 0 -94 0 0 110 0 110 95 0
95 0 0 145 0 145 125 0 124 0 3 -142z m982 -118 c178 -45 288 -147 314 -288
l9 -52 -123 0 -123 0 -15 29 c-21 39 -77 86 -123 102 -21 7 -67 13 -103 14
-78 0 -149 -33 -164 -78 -8 -23 -6 -31 19 -57 36 -37 114 -63 275 -91 68 -12
148 -30 177 -40 221 -76 280 -296 120 -450 -45 -44 -91 -71 -177 -101 -79 -29
-271 -36 -364 -14 -151 36 -273 130 -315 242 -33 88 -38 84 102 83 l122 0 30
-42 c43 -58 105 -88 202 -94 95 -6 156 8 195 47 36 36 36 72 2 99 -32 25 -67
35 -213 62 -320 58 -444 147 -445 319 -1 234 296 387 598 310z m-1976 -14 c28
-8 81 -30 117 -50 36 -20 68 -36 70 -36 3 0 5 18 5 40 l0 40 125 0 125 0 0
-500 0 -500 -125 0 -125 0 0 45 c0 25 -3 45 -7 45 -3 0 -28 -14 -54 -30 -104
-67 -252 -95 -372 -70 -190 39 -356 193 -411 379 -18 61 -21 184 -5 250 43
186 219 351 424 394 46 10 184 6 233 -7z"/>
<path d="M3170 4491 c-84 -26 -169 -99 -211 -181 -33 -66 -38 -186 -10 -261
69 -181 277 -267 453 -186 77 35 123 79 160 155 29 60 33 76 33 152 0 73 -4
93 -28 142 -35 71 -110 140 -183 167 -56 22 -163 27 -214 12z"/>
<path d="M4310 4501 c-85 -26 -155 -86 -189 -161 -39 -86 -59 -80 269 -80
l290 0 0 28 c0 43 -59 131 -112 168 -69 47 -185 67 -258 45z"/>
<path d="M2988 2781 c-80 -26 -167 -113 -194 -193 -24 -73 -15 -169 22 -238
119 -218 429 -210 536 15 52 111 34 233 -49 325 -64 72 -110 93 -208 96 -44 2
-92 -1 -107 -5z"/>
</g>
</svg>
