<svg id="Camada_1" data-name="Camada 1" xmlns="http://www.w3.org/2000/svg" viewBox="0 0 1085.63 1085.63"><defs><style>.cls-1{fill:#000010;}.cls-2{fill:#fff;}.cls-2,.cls-3{fill-rule:evenodd;}.cls-3{fill:#8fc167;}</style></defs><title>Монтажная область 2</title><rect class="cls-1" width="1085.63" height="1085.63" rx="93.59"/><path class="cls-2" d="M880.27,593.18H848.94V439.85h31.33v17.22c7.32-12.94,23.25-18.85,37.52-18.85h9.47v30.71H917.6c-26.3,0-37.33,13.89-37.33,39.2v85ZM297.59,383h33.64V511.4c0,77.13,103,71.62,103-.2V383h31.87V593.12H434.22V574.2c-16.43,15.3-35.35,22.68-53.77,23.3-42.77,1.44-82.86-33.56-82.86-90.4V383ZM523.78,592.8H492.56V383.1h31.22v75.45c17.48-15.12,37.91-21.68,57.5-21,50.37,1.73,77.09,38.3,77.54,76,.48,40.76-29.3,82.88-80.27,84.55-19.43.64-39.07-6.72-54.77-23.68v18.4ZM575.9,465.45a52.25,52.25,0,1,0,52.25,52.25,52.25,52.25,0,0,0-52.25-52.25ZM828,527.38H704.42c8.6,28.62,29.48,43.39,51.45,43,15.45-.24,31.44-7.94,44.09-23.55L821,563.25c-22,39.4-85.63,42-118.85,16-24-18.77-30.37-42.06-30-64.62.81-50.07,42.94-78.91,83.22-78.45,39,.44,76.31,28.38,72.65,91.16ZM796.42,502.7c-3.74-45.76-79.88-55.76-91.64,0Z" transform="translate(-69.76 -78.3)"/><path class="cls-3" d="M339.23,820.3V768.59H444V733.1H339.23V681.39H447.15V645.9H298.57V855.79H447.15V820.3Zm583.34-70.23H883.19a22.9,22.9,0,0,0-8.29-13.34c-6.13-5.06-14.94-8.5-23.85-9.37-13.89-1.34-29.76,5.74-30.22,14.18-.29,5.22,5.32,11,20.94,15.53,26.13,7.65,59.56,4.33,77.87,28.21,21.43,28-1,72-62.77,73.88-36.88,1.14-75.6-15-80.72-54.3h39c3.09,6.39,7.27,12.2,14.22,16.5,13.52,8.35,53.58,10,56.11-9.28.37-2.81-.85-5.67-4.5-8.24-7-4.91-19.76-6.4-31.12-8.73-49.14-6.77-67.13-22.75-70.54-43a40.68,40.68,0,0,1,3.85-25.89,55.51,55.51,0,0,1,11.25-14.44c14.12-13.15,36.25-18.9,57.7-18.24,30.32.93,69,17.62,70.46,56.56Zm-157,69.64v35.53H722.45c-26.62,0-41.57-17.56-41.57-42.87V735.8H651.24v-35h29.64V655.92h39.77v44.83h45v35h-45v67c0,14.7,5.1,16.89,19.15,16.89ZM594.51,713.5V700.43h40.56V855.15H594.51V840.72c-16.3,12.84-35.44,19.22-53.69,18.31-41.1-2.06-80.43-36.39-79.48-83.41,1-47.58,43.8-79.87,85.63-79.34a76.14,76.14,0,0,1,47.54,17.22Zm-47,17.38a46.6,46.6,0,1,0,46.6,46.6A46.6,46.6,0,0,0,547.48,730.88Z" transform="translate(-69.76 -78.3)"/></svg>